<?xml version="1.0" encoding="UTF-8" standalone="no"?>
<!DOCTYPE svg PUBLIC "-//W3C//DTD SVG 1.1//EN"
 "http://www.w3.org/Graphics/SVG/1.1/DTD/svg11.dtd">
<!-- Generated by graphviz version 5.0.0 (20220707.1540)
 -->
<!-- Title: dependencies Pages: 1 -->
<svg width="2192pt" height="247pt"
 viewBox="0.00 0.00 2192.00 246.80" xmlns="http://www.w3.org/2000/svg" xmlns:xlink="http://www.w3.org/1999/xlink">
<g id="graph0" class="graph" transform="scale(1 1) rotate(0) translate(4 242.8)">
<title>dependencies</title>
<polygon fill="white" stroke="transparent" points="-4,4 -4,-242.8 2188,-242.8 2188,4 -4,4"/>
<text text-anchor="middle" x="1092" y="-8.2" font-family="sans-serif" font-size="14.00">dependencies</text>
<g id="clust1" class="cluster">
<title>cluster_AppModule</title>
<polygon fill="none" stroke="black" stroke-dasharray="1,5" points="8,-32.8 8,-230.8 2176,-230.8 2176,-32.8 8,-32.8"/>
</g>
<g id="clust2" class="cluster">
<title>cluster_AppModule_declarations</title>
<polygon fill="none" stroke="black" points="424,-40.8 424,-92.8 2168,-92.8 2168,-40.8 424,-40.8"/>
</g>
<g id="clust15" class="cluster">
<title>cluster_AppModule_imports</title>
<polygon fill="none" stroke="black" points="272,-40.8 272,-92.8 416,-92.8 416,-40.8 272,-40.8"/>
</g>
<g id="clust17" class="cluster">
<title>cluster_AppModule_bootstrap</title>
<polygon fill="none" stroke="black" points="1090,-170.8 1090,-222.8 1214,-222.8 1214,-170.8 1090,-170.8"/>
</g>
<g id="clust18" class="cluster">
<title>cluster_AppModule_providers</title>
<polygon fill="none" stroke="black" points="16,-40.8 16,-92.8 264,-92.8 264,-40.8 16,-40.8"/>
</g>
<!-- AppComponent -->
<g id="node1" class="node">
<title>AppComponent</title>
<polygon fill="#ffffb3" stroke="black" points="2159.94,-84.8 2054.06,-84.8 2054.06,-48.8 2159.94,-48.8 2159.94,-84.8"/>
<text text-anchor="middle" x="2107" y="-62.6" font-family="Times,serif" font-size="14.00">AppComponent</text>
</g>
<!-- AppModule -->
<g id="node13" class="node">
<title>AppModule</title>
<polygon fill="#8dd3c7" stroke="black" points="1193.66,-149.8 1190.66,-153.8 1169.66,-153.8 1166.66,-149.8 1110.34,-149.8 1110.34,-113.8 1193.66,-113.8 1193.66,-149.8"/>
<text text-anchor="middle" x="1152" y="-127.6" font-family="Times,serif" font-size="14.00">AppModule</text>
</g>
<!-- AppComponent&#45;&gt;AppModule -->
<g id="edge1" class="edge">
<title>AppComponent&#45;&gt;AppModule</title>
<path fill="none" stroke="black" d="M2107,-84.89C2107,-107.93 2107,-144.8 2107,-144.8 2107,-144.8 1203.96,-144.8 1203.96,-144.8"/>
<polygon fill="black" stroke="black" points="1203.96,-141.3 1193.96,-144.8 1203.96,-148.3 1203.96,-141.3"/>
</g>
<!-- CompletedComponent -->
<g id="node2" class="node">
<title>CompletedComponent</title>
<polygon fill="#ffffb3" stroke="black" points="2036.27,-84.8 1893.73,-84.8 1893.73,-48.8 2036.27,-48.8 2036.27,-84.8"/>
<text text-anchor="middle" x="1965" y="-62.6" font-family="Times,serif" font-size="14.00">CompletedComponent</text>
</g>
<!-- CompletedComponent&#45;&gt;AppModule -->
<g id="edge2" class="edge">
<title>CompletedComponent&#45;&gt;AppModule</title>
<path fill="none" stroke="black" d="M1965,-84.84C1965,-106.46 1965,-139.8 1965,-139.8 1965,-139.8 1203.72,-139.8 1203.72,-139.8"/>
<polygon fill="black" stroke="black" points="1203.72,-136.3 1193.72,-139.8 1203.72,-143.3 1203.72,-136.3"/>
</g>
<!-- ContactUsComponent -->
<g id="node3" class="node">
<title>ContactUsComponent</title>
<polygon fill="#ffffb3" stroke="black" points="1875.44,-84.8 1734.56,-84.8 1734.56,-48.8 1875.44,-48.8 1875.44,-84.8"/>
<text text-anchor="middle" x="1805" y="-62.6" font-family="Times,serif" font-size="14.00">ContactUsComponent</text>
</g>
<!-- ContactUsComponent&#45;&gt;AppModule -->
<g id="edge3" class="edge">
<title>ContactUsComponent&#45;&gt;AppModule</title>
<path fill="none" stroke="black" d="M1805,-85.02C1805,-105.17 1805,-134.8 1805,-134.8 1805,-134.8 1203.84,-134.8 1203.84,-134.8"/>
<polygon fill="black" stroke="black" points="1203.84,-131.3 1193.84,-134.8 1203.84,-138.3 1203.84,-131.3"/>
</g>
<!-- DeletedComponent -->
<g id="node4" class="node">
<title>DeletedComponent</title>
<polygon fill="#ffffb3" stroke="black" points="1716.36,-84.8 1591.64,-84.8 1591.64,-48.8 1716.36,-48.8 1716.36,-84.8"/>
<text text-anchor="middle" x="1654" y="-62.6" font-family="Times,serif" font-size="14.00">DeletedComponent</text>
</g>
<!-- DeletedComponent&#45;&gt;AppModule -->
<g id="edge4" class="edge">
<title>DeletedComponent&#45;&gt;AppModule</title>
<path fill="none" stroke="black" d="M1654,-85.02C1654,-103.63 1654,-129.8 1654,-129.8 1654,-129.8 1203.94,-129.8 1203.94,-129.8"/>
<polygon fill="black" stroke="black" points="1203.94,-126.3 1193.94,-129.8 1203.94,-133.3 1203.94,-126.3"/>
</g>
<!-- FavouriteComponent -->
<g id="node5" class="node">
<title>FavouriteComponent</title>
<polygon fill="#ffffb3" stroke="black" points="1573.49,-84.8 1438.51,-84.8 1438.51,-48.8 1573.49,-48.8 1573.49,-84.8"/>
<text text-anchor="middle" x="1506" y="-62.6" font-family="Times,serif" font-size="14.00">FavouriteComponent</text>
</g>
<!-- FavouriteComponent&#45;&gt;AppModule -->
<g id="edge5" class="edge">
<title>FavouriteComponent&#45;&gt;AppModule</title>
<path fill="none" stroke="black" d="M1506,-84.83C1506,-101.86 1506,-124.8 1506,-124.8 1506,-124.8 1204,-124.8 1204,-124.8"/>
<polygon fill="black" stroke="black" points="1204,-121.3 1194,-124.8 1204,-128.3 1204,-121.3"/>
</g>
<!-- LoginComponent -->
<g id="node6" class="node">
<title>LoginComponent</title>
<polygon fill="#ffffb3" stroke="black" points="1420.27,-84.8 1305.73,-84.8 1305.73,-48.8 1420.27,-48.8 1420.27,-84.8"/>
<text text-anchor="middle" x="1363" y="-62.6" font-family="Times,serif" font-size="14.00">LoginComponent</text>
</g>
<!-- LoginComponent&#45;&gt;AppModule -->
<g id="edge6" class="edge">
<title>LoginComponent&#45;&gt;AppModule</title>
<path fill="none" stroke="black" d="M1363,-85.04C1363,-100.37 1363,-119.8 1363,-119.8 1363,-119.8 1203.69,-119.8 1203.69,-119.8"/>
<polygon fill="black" stroke="black" points="1203.69,-116.3 1193.69,-119.8 1203.69,-123.3 1203.69,-116.3"/>
</g>
<!-- NavbarComponent -->
<g id="node7" class="node">
<title>NavbarComponent</title>
<polygon fill="#ffffb3" stroke="black" points="1287.03,-84.8 1164.97,-84.8 1164.97,-48.8 1287.03,-48.8 1287.03,-84.8"/>
<text text-anchor="middle" x="1226" y="-62.6" font-family="Times,serif" font-size="14.00">NavbarComponent</text>
</g>
<!-- NavbarComponent&#45;&gt;AppModule -->
<g id="edge7" class="edge">
<title>NavbarComponent&#45;&gt;AppModule</title>
<path fill="none" stroke="black" d="M1179.28,-84.91C1179.28,-84.91 1179.28,-103.79 1179.28,-103.79"/>
<polygon fill="black" stroke="black" points="1175.78,-103.79 1179.28,-113.79 1182.78,-103.79 1175.78,-103.79"/>
</g>
<!-- NotFoundComponent -->
<g id="node8" class="node">
<title>NotFoundComponent</title>
<polygon fill="#ffffb3" stroke="black" points="1147.12,-84.8 1008.88,-84.8 1008.88,-48.8 1147.12,-48.8 1147.12,-84.8"/>
<text text-anchor="middle" x="1078" y="-62.6" font-family="Times,serif" font-size="14.00">NotFoundComponent</text>
</g>
<!-- NotFoundComponent&#45;&gt;AppModule -->
<g id="edge8" class="edge">
<title>NotFoundComponent&#45;&gt;AppModule</title>
<path fill="none" stroke="black" d="M1128.61,-84.91C1128.61,-84.91 1128.61,-103.79 1128.61,-103.79"/>
<polygon fill="black" stroke="black" points="1125.11,-103.79 1128.61,-113.79 1132.11,-103.79 1125.11,-103.79"/>
</g>
<!-- RegisterComponent -->
<g id="node9" class="node">
<title>RegisterComponent</title>
<polygon fill="#ffffb3" stroke="black" points="990.99,-84.8 863.01,-84.8 863.01,-48.8 990.99,-48.8 990.99,-84.8"/>
<text text-anchor="middle" x="927" y="-62.6" font-family="Times,serif" font-size="14.00">RegisterComponent</text>
</g>
<!-- RegisterComponent&#45;&gt;AppModule -->
<g id="edge9" class="edge">
<title>RegisterComponent&#45;&gt;AppModule</title>
<path fill="none" stroke="black" d="M927,-85.04C927,-100.37 927,-119.8 927,-119.8 927,-119.8 1100.21,-119.8 1100.21,-119.8"/>
<polygon fill="black" stroke="black" points="1100.21,-123.3 1110.21,-119.8 1100.21,-116.3 1100.21,-123.3"/>
</g>
<!-- TodoComponent -->
<g id="node10" class="node">
<title>TodoComponent</title>
<polygon fill="#ffffb3" stroke="black" points="845.38,-84.8 734.62,-84.8 734.62,-48.8 845.38,-48.8 845.38,-84.8"/>
<text text-anchor="middle" x="790" y="-62.6" font-family="Times,serif" font-size="14.00">TodoComponent</text>
</g>
<!-- TodoComponent&#45;&gt;AppModule -->
<g id="edge10" class="edge">
<title>TodoComponent&#45;&gt;AppModule</title>
<path fill="none" stroke="black" d="M790,-84.83C790,-101.86 790,-124.8 790,-124.8 790,-124.8 1100.12,-124.8 1100.12,-124.8"/>
<polygon fill="black" stroke="black" points="1100.12,-128.3 1110.12,-124.8 1100.12,-121.3 1100.12,-128.3"/>
</g>
<!-- TodoDetailsComponent -->
<g id="node11" class="node">
<title>TodoDetailsComponent</title>
<polygon fill="#ffffb3" stroke="black" points="716.04,-84.8 565.96,-84.8 565.96,-48.8 716.04,-48.8 716.04,-84.8"/>
<text text-anchor="middle" x="641" y="-62.6" font-family="Times,serif" font-size="14.00">TodoDetailsComponent</text>
</g>
<!-- TodoDetailsComponent&#45;&gt;AppModule -->
<g id="edge11" class="edge">
<title>TodoDetailsComponent&#45;&gt;AppModule</title>
<path fill="none" stroke="black" d="M641,-85.02C641,-103.63 641,-129.8 641,-129.8 641,-129.8 1100.18,-129.8 1100.18,-129.8"/>
<polygon fill="black" stroke="black" points="1100.18,-133.3 1110.18,-129.8 1100.18,-126.3 1100.18,-133.3"/>
</g>
<!-- TodosComponent -->
<g id="node12" class="node">
<title>TodosComponent</title>
<polygon fill="#ffffb3" stroke="black" points="548.33,-84.8 431.67,-84.8 431.67,-48.8 548.33,-48.8 548.33,-84.8"/>
<text text-anchor="middle" x="490" y="-62.6" font-family="Times,serif" font-size="14.00">TodosComponent</text>
</g>
<!-- TodosComponent&#45;&gt;AppModule -->
<g id="edge12" class="edge">
<title>TodosComponent&#45;&gt;AppModule</title>
<path fill="none" stroke="black" d="M490,-85.02C490,-105.17 490,-134.8 490,-134.8 490,-134.8 1100.09,-134.8 1100.09,-134.8"/>
<polygon fill="black" stroke="black" points="1100.09,-138.3 1110.09,-134.8 1100.09,-131.3 1100.09,-138.3"/>
</g>
<!-- AppComponent  -->
<g id="node15" class="node">
<title>AppComponent </title>
<polygon fill="#80b1d3" stroke="black" points="1206.44,-214.8 1097.56,-214.8 1097.56,-178.8 1206.44,-178.8 1206.44,-214.8"/>
<text text-anchor="middle" x="1152" y="-192.6" font-family="Times,serif" font-size="14.00">AppComponent </text>
</g>
<!-- AppModule&#45;&gt;AppComponent  -->
<g id="edge14" class="edge">
<title>AppModule&#45;&gt;AppComponent </title>
<path fill="none" stroke="black" stroke-dasharray="1,5" d="M1152,-149.91C1152,-149.91 1152,-168.79 1152,-168.79"/>
<polygon fill="black" stroke="black" points="1148.5,-168.79 1152,-178.79 1155.5,-168.79 1148.5,-168.79"/>
</g>
<!-- AppRoutingModule -->
<g id="node14" class="node">
<title>AppRoutingModule</title>
<polygon fill="#8dd3c7" stroke="black" points="408.28,-84.8 405.28,-88.8 384.28,-88.8 381.28,-84.8 279.72,-84.8 279.72,-48.8 408.28,-48.8 408.28,-84.8"/>
<text text-anchor="middle" x="344" y="-62.6" font-family="Times,serif" font-size="14.00">AppRoutingModule</text>
</g>
<!-- AppRoutingModule&#45;&gt;AppModule -->
<g id="edge13" class="edge">
<title>AppRoutingModule&#45;&gt;AppModule</title>
<path fill="none" stroke="black" d="M344,-84.84C344,-106.46 344,-139.8 344,-139.8 344,-139.8 1100.26,-139.8 1100.26,-139.8"/>
<polygon fill="black" stroke="black" points="1100.26,-143.3 1110.26,-139.8 1100.26,-136.3 1100.26,-143.3"/>
</g>
<!-- TodoInterceptorInterceptor -->
<g id="node16" class="node">
<title>TodoInterceptorInterceptor</title>
<ellipse fill="#fdb462" stroke="black" cx="140" cy="-66.8" rx="116.27" ry="18"/>
<text text-anchor="middle" x="140" y="-62.6" font-family="Times,serif" font-size="14.00">TodoInterceptorInterceptor</text>
</g>
<!-- TodoInterceptorInterceptor&#45;&gt;AppModule -->
<g id="edge15" class="edge">
<title>TodoInterceptorInterceptor&#45;&gt;AppModule</title>
<path fill="none" stroke="black" d="M140,-84.89C140,-107.93 140,-144.8 140,-144.8 140,-144.8 1100.12,-144.8 1100.12,-144.8"/>
<polygon fill="black" stroke="black" points="1100.12,-148.3 1110.12,-144.8 1100.12,-141.3 1100.12,-148.3"/>
</g>
</g>
</svg>
